<svg width="149" height="71" viewBox="0 0 149 71" fill="none" xmlns="http://www.w3.org/2000/svg">
<path fill-rule="evenodd" clip-rule="evenodd" d="M76.4561 18.8023V20.469V34.0008V35.1098V37.3294V59.6042V67.099L73.9212 70.7741H81.0079H91.8659H101.293L99.2135 67.099H99.149V37.8846L100.514 33.8608H95.6379H97.1974H99.0838C99.5381 27.963 104.22 23.2446 109.811 23.2446C115.533 23.2446 120.15 27.963 120.604 33.8608H122.49H124.116H119.174L120.54 37.8846V67.099H120.475L118.005 70.7741H127.693H138.16H145.313L143.297 67.099V59.6042V37.3294V35.1098V34.0008V20.469V18.8023V14.0159V13.3903L149.213 8.46384H149.408V8.255V7.97813H143.297V3.19017V1.87392V0.762547V0H76.4561V0.762547V1.87392V3.19017V7.97813H70.2796V8.11814V8.46384H70.6043L76.4561 13.3903V14.0159V18.8023Z" fill="url(#paint0_linear_3312_8885)"/>
<path fill-rule="evenodd" clip-rule="evenodd" d="M6.17683 18.8023V20.469V34.0008V35.1098V37.3294V59.6042V67.099L3.64188 70.7741H10.7286H21.5866H31.014L28.9342 67.099H28.8697V37.8846L30.235 33.8608H25.3586H26.9181H28.8045C29.2588 27.963 33.9403 23.2446 39.5313 23.2446C45.2534 23.2446 49.8704 27.963 50.3248 33.8608H52.2111H53.8366H48.895L50.261 37.8846V67.099H50.1958L47.7253 70.7741H57.4137H67.881H75.0337L73.0176 67.099V59.6042V37.3294V35.1098V34.0008V20.469V18.8023V14.0159V13.3903L78.934 8.46384H79.1289V8.255V7.97813H73.0176V3.19017V1.87392V0.762547V0H6.17683V0.762547V1.87392V3.19017V7.97813H0.000320435V8.11814V8.46384H0.324974L6.17683 13.3903V14.0159V18.8023Z" fill="url(#paint1_linear_3312_8885)"/>
<defs>
<linearGradient id="paint0_linear_3312_8885" x1="109.844" y1="0" x2="109.844" y2="70.7741" gradientUnits="userSpaceOnUse">
<stop stop-color="#2563EB"/>
<stop offset="1" stop-color="#9333EA"/>
</linearGradient>
<linearGradient id="paint1_linear_3312_8885" x1="39.5646" y1="0" x2="39.5646" y2="70.7741" gradientUnits="userSpaceOnUse">
<stop stop-color="#2563EB"/>
<stop offset="1" stop-color="#9333EA"/>
</linearGradient>
</defs>
</svg>
