<svg width="181" height="112" viewBox="0 0 181 112" fill="none" xmlns="http://www.w3.org/2000/svg">
<path fill-rule="evenodd" clip-rule="evenodd" d="M90.7811 5.37374V14.2488H91.8346V15.8762H91.4835C121.35 36.0033 104.602 42.252 108.115 46.252C102.377 46.1252 96.6364 46.1252 90.7811 46.252H73.2084C75.4344 41.8758 58.1007 36.1259 89.0225 15.8762H88.67V14.2488H89.7262V5.87398C89.4925 5.87398 89.2588 5.87398 89.0225 5.87398C87.7339 5.87398 86.5642 4.99895 86.0941 3.6238C86.6803 4.25079 87.384 4.49882 88.2039 4.49882C89.9599 4.49882 91.4835 2.99968 91.4835 1.12294C91.4835 0.745338 91.3659 0.247978 91.2498 0C91.9508 0.622763 92.302 1.49628 92.302 2.37548C92.302 3.62382 91.7158 4.74816 90.7811 5.37374ZM32.4467 54.0014C32.7966 53.2532 29.9871 52.374 35.1387 49.0009C40.0593 52.374 37.366 53.3786 37.9509 54.0014C36.0761 54.0014 34.3215 54.0014 32.4467 54.0014ZM32.213 59.7513H37.8333V56.4981H32.213V59.7513ZM33.2666 59.0032H34.3215V57.1236H33.2666V59.0032ZM35.8424 59.0032H36.7798V57.1236H35.8424V59.0032ZM34.5552 59.0032H35.4912V57.1236H34.5552V59.0032ZM31.508 56.1261H38.6559V55.5019H31.508V56.1261ZM31.508 55.0031H38.6559V54.3761H31.508V55.0031ZM31.508 60.7489H38.6559V60.2501H31.508V60.7489ZM31.508 61.4999H38.6559V61.0011H31.508V61.4999ZM32.0955 61.6253H37.9509V77.1281H32.0955V61.6253ZM37.9509 78.1299V91.5052H32.0955V78.1299H37.9509ZM37.9509 92.5027V100.756H44.8611V62.5045L56.4583 60.0022V100.758H56.9257V53.2547H58.4506V52.7517H72.0387V48.3754H108.585V52.002V52.7502H122.639V53.2532H123.811V100.756H124.514V59.3752L135.758 62.7539V100.756H143.372V92.5027H149.111V100.756H159.536V87.3797H168.909V100.756H180.853V104.128H0V100.756H12.2995V87.3797H21.7869V100.756H32.0955V92.5027H37.9509ZM21.3182 24.747C20.732 23.6255 25.3014 22.2518 16.9838 16.878C8.90249 22.125 13.3531 23.7495 12.4157 24.747C15.3441 24.747 18.3899 24.747 21.3182 24.747ZM21.5546 34.1237H12.5332V28.8711H21.5546V34.1237ZM19.9122 33.0008H18.3899V30.0011H19.9122V33.0008ZM15.6953 33.0008H14.173V30.0011H15.6953V33.0008ZM17.805 33.0008H16.2814V30.0011H17.805V33.0008ZM22.9567 28.6245H11.2447V27.2508H22.9567V28.6245ZM22.9567 26.6266H11.2447V25.3782H22.9567V26.6266ZM22.9567 35.751H11.2447V34.5027H22.9567V35.751ZM22.9567 37.0008H11.2447V36.1258H22.9567V37.0008ZM180.853 112H0V105.254H180.853V112ZM21.7882 37.2516H12.3008V62.3748H21.7882V37.2516ZM159.89 24.747C160.591 23.6255 155.907 22.2518 164.341 16.878C172.419 22.125 167.97 23.7495 168.909 24.747C165.864 24.747 162.933 24.747 159.89 24.747ZM168.793 34.1237V28.8711H170.081V27.2508H158.365V28.8711H159.655V34.1237H158.365V35.6256V35.751V37.2502H159.536V62.3735H168.909V37.2502H170.081V35.751V35.6256V34.1237H168.793ZM161.412 33.0008H162.933V30.0011H161.412V33.0008ZM165.513 33.0008H167.15V30.0011H165.513V33.0008ZM163.518 33.0008H165.044V30.0011H163.518V33.0008ZM158.365 26.9986H170.081V25.3782H158.365V26.9986ZM168.909 64.0036V85.6256H159.536V64.0036H168.909ZM74.2646 100.756H106.476V55.3765H74.2646V100.756ZM148.879 54.0014C148.528 53.2532 151.337 52.374 146.186 49.0009C141.148 52.374 143.958 53.3786 143.375 54.0014C145.246 54.0014 147.003 54.0014 148.879 54.0014ZM149.113 59.7513H143.491V56.4981H149.113V59.7513ZM147.94 59.0032H147.003V57.1236H147.94V59.0032ZM145.481 59.0032H144.546V57.1236H145.481V59.0032ZM146.653 59.0032H145.716V57.1236H146.653V59.0032ZM149.814 56.2515H142.671V55.5019H149.814V56.2515ZM149.814 55.0031H142.671V54.3761H149.814V55.0031ZM149.814 60.7489H142.671V60.1261H149.814V60.7489ZM149.814 61.6253H149.113V77.1281H143.374V61.6253H142.671V61.0025H149.814V61.6253ZM143.374 78.1299V91.5052H149.113V78.1299H143.374ZM12.3008 64.0036V85.6256H21.7882V64.0036H12.3008ZM53.2962 87.7531V97.003L47.3247 97.1284V88.5027C47.3247 86.8782 50.1342 84.2519 50.2517 84.2519C50.3679 84.2519 53.2962 86.1286 53.2962 87.7531ZM53.2962 72.2532V81.379L47.3247 82.1285V73.0012C47.3247 71.2485 50.1342 68.6264 50.2517 68.6264C50.3679 68.501 53.2962 70.3764 53.2962 72.2532ZM127.911 87.7531V97.003L133.885 97.1284V88.5027C133.885 86.8782 130.958 84.2519 130.842 84.2519C130.723 84.2519 127.911 86.1286 127.911 87.7531ZM127.911 72.2532V81.379L133.885 82.1285V73.0012C133.885 71.2485 130.958 68.6264 130.842 68.6264C130.723 68.501 127.911 70.3764 127.911 72.2532ZM110.339 52.002C111.046 50.6269 105.42 49.0023 115.73 42.3746H115.614H115.263V41.8758H115.614V39.6257C115.498 39.6257 115.379 39.6257 115.263 39.6257C114.91 39.6257 114.441 39.2509 114.324 38.8733C114.441 38.9987 114.793 39.1241 115.03 39.1241C115.614 39.1241 116.081 38.6254 116.081 38.1224C116.081 38.0012 116.081 37.8758 115.966 37.7504C116.2 37.8758 116.316 38.1223 116.316 38.4985C116.316 38.8733 116.2 39.1227 115.966 39.3778V41.8744H116.2V42.3732H115.966H115.731C125.57 48.753 120.417 50.7509 121.353 52.0007L110.339 52.002ZM93.3569 74.251V81.379H100.152V74.003C100.152 69.7536 90.8986 64.0036 90.4285 64.0036C89.9599 64.0036 80.7062 69.7536 80.7062 74.003V81.379H87.384V74.251C87.384 73.0013 90.1949 71.2485 90.4285 71.2485C90.5434 71.2499 93.3569 73.0027 93.3569 74.251ZM93.3569 90.1244V97.1284H87.3827V90.1244C87.3827 88.7493 90.1936 87.0036 90.4273 87.0036C90.5434 87.0036 93.3569 88.7507 93.3569 90.1244ZM100.152 83.8799H80.7062V97.1284H77.8966V59.1286H102.846V97.1284H100.152V83.8799ZM62.4338 75.8756H64.7772V80.6252H62.4338V75.8756ZM62.4338 92.376H64.7772V97.1284H62.4338V92.376ZM116.197 92.376H118.54V97.1284H116.197V92.376ZM116.197 75.8756H118.54V80.6252H116.197V75.8756ZM60.3253 55.7499H62.4338V59.1286H60.3253V55.7499ZM118.892 55.7499H121.117V59.1286H118.892V55.7499ZM115.378 55.7499H117.486V59.1286H115.378V55.7499ZM111.745 55.7499H113.855V59.1286H111.745V55.7499ZM67.5867 55.7499H69.6965V59.1286H67.5867V55.7499ZM63.956 55.7499H66.0645V59.1286H63.956V55.7499ZM113.037 83.5023H116.314C115.613 83.8799 114.909 84.5027 114.558 84.7507C113.855 85.3748 112.919 86.5048 112.919 87.6278V97.6285H121.939V87.6278C121.939 86.5048 120.884 85.3748 120.181 84.7507C119.947 84.5027 119.126 83.8799 118.423 83.5023H121.939V82.5048H113.037V83.5023ZM59.1529 66.5003H63.1361C62.4338 66.8779 61.1452 68.0022 60.794 68.253C60.089 68.8786 59.0354 70.0002 59.0354 71.1274V81.1254H68.0554V71.1274C68.0554 70.0002 67.0019 68.8786 66.2982 68.253C65.947 67.8768 64.7772 66.8765 63.956 66.5003H68.0568V65.5028H59.1542V66.5003H59.1529ZM59.1529 83.5023H62.5499C61.8462 83.8799 61.0277 84.5027 60.794 84.7507C60.089 85.3748 59.0354 86.5048 59.0354 87.6278V97.6285H68.0554V87.6278C68.0554 86.5048 67.1194 85.3748 66.2982 84.7507C66.0645 84.5027 65.3621 83.8799 64.6597 83.5023H68.0568V82.5048H59.1542V83.5023H59.1529ZM112.802 66.5003H117.019C116.197 66.8779 114.909 67.8768 114.674 68.253C113.855 68.8786 112.919 70.0002 112.919 71.1274V81.1254H121.939V71.1274C121.939 70.0002 120.884 68.8786 120.181 68.253C119.829 68.0022 118.541 66.8765 117.838 66.5003H121.587V65.5028H112.802V66.5003ZM65.477 37.7504C65.7133 37.8758 65.8295 38.1223 65.8295 38.4985C65.8295 38.8733 65.7133 39.1227 65.477 39.3778V41.8744H65.8295V42.3732H65.477H65.2433H65.1271H64.7759V41.8744H65.1271V39.6243C65.0096 39.6243 64.8921 39.6243 64.7759 39.6243C64.4234 39.6243 64.0722 39.2495 63.8372 38.8719C64.0735 38.9973 64.3059 39.1227 64.5409 39.1227C65.1271 39.1227 65.5945 38.6239 65.5945 38.1209C65.5958 38.0012 65.5958 37.8758 65.477 37.7504ZM65.2446 42.3732C75.0832 48.753 70.0477 50.7509 70.8663 52.0007H59.8553C60.6765 50.6269 54.936 49.0024 65.2446 42.3732Z" fill="url(#paint0_linear_3312_8884)"/>
<defs>
<linearGradient id="paint0_linear_3312_8884" x1="90.4266" y1="0" x2="90.4266" y2="112" gradientUnits="userSpaceOnUse">
<stop stop-color="#2563EB"/>
<stop offset="1" stop-color="#9333EA"/>
</linearGradient>
</defs>
</svg>
